<svg id="Layer_1" data-name="Layer 1" xmlns="http://www.w3.org/2000/svg" viewBox="0 0 151.88 106"><defs><style>.cls-1{fill:#7f7b82;}.cls-2{fill:#845a6d;}.cls-3{fill:#fff;}</style></defs><path class="cls-1" d="M373.34,447.63l-36.71-32.1a23.78,23.78,0,0,1,0-35.8l36.71-32.1" transform="translate(-321.51 -341.63)"/><path class="cls-1" d="M373.39,347.58h85a15,15,0,0,1,15,15v70a15,15,0,0,1-15,15h-85" transform="translate(-321.51 -341.63)"/><path class="cls-2" d="M366.34,341.63h85a15,15,0,0,1,15,15v70a15,15,0,0,1-15,15h-85" transform="translate(-321.51 -341.63)"/><path class="cls-2" d="M366.34,441.63l-36.71-32.1a23.78,23.78,0,0,1,0-35.8l36.71-32.1" transform="translate(-321.51 -341.63)"/><rect class="cls-3" x="406.16" y="350.51" width="20.36" height="82.23" rx="10.18" transform="translate(-476.49 67.47) rotate(-45)"/><rect class="cls-3" x="406.16" y="350.51" width="20.36" height="82.23" rx="10.18" transform="translate(112.3 621.32) rotate(-135)"/></svg>