<svg id="Layer_1" data-name="Layer 1" xmlns="http://www.w3.org/2000/svg" viewBox="0 0 75.77 92.01"><defs><style>.cls-1,.cls-2{fill:none;stroke-miterlimit:10;stroke-width:12px;}.cls-1{stroke:#7f7b82;}.cls-2{stroke:#92b08e;}</style></defs><path class="cls-1" d="M363.25,265l24.61,38.16a7.44,7.44,0,0,1,0,7.87l-24.61,38.15" transform="translate(-358.21 -260.44)"/><path class="cls-1" d="M394.41,265,419,303.17a7.44,7.44,0,0,1,0,7.87l-24.61,38.15" transform="translate(-358.21 -260.44)"/><path class="cls-2" d="M371.09,263.69l24.61,38.15a7.46,7.46,0,0,1,0,7.88l-24.61,38.15" transform="translate(-358.21 -260.44)"/><path class="cls-2" d="M402.24,263.69l24.61,38.15a7.42,7.42,0,0,1,0,7.88l-24.61,38.15" transform="translate(-358.21 -260.44)"/></svg>