<svg id="Layer_1" data-name="Layer 1" xmlns="http://www.w3.org/2000/svg" viewBox="0 0 80.57 89.81"><defs><style>.cls-1{fill:#7f7b82;}.cls-2{fill:#e49e4e;}</style></defs><path class="cls-1" d="M185.09,326,140,352.39a12.48,12.48,0,0,1-18.77-10.77V288.91A12.47,12.47,0,0,1,140,278.14l45.1,26.35A12.47,12.47,0,0,1,185.09,326Z" transform="translate(-121.22 -268.42)"/><rect class="cls-1" x="66.77" y="4.36" width="10.65" height="85.45" rx="5"/><path class="cls-2" d="M190.38,317.43l-48.91,29.5a10.5,10.5,0,0,1-15.93-9v-59a10.51,10.51,0,0,1,15.93-9l48.91,29.51A10.5,10.5,0,0,1,190.38,317.43Z" transform="translate(-121.22 -268.42)"/><rect class="cls-2" x="70.4" y="1.19" width="10.16" height="85.45" rx="5"/></svg>