<svg id="Layer_1" data-name="Layer 1" xmlns="http://www.w3.org/2000/svg" viewBox="0 0 151 198.98"><defs><style>.cls-1{fill:#7f7b82;}.cls-1,.cls-2{stroke:#7f7b82;}.cls-1,.cls-2,.cls-3,.cls-4{stroke-miterlimit:10;}.cls-2,.cls-4{fill:none;stroke-width:18px;}.cls-3{fill:#92b9bd;}.cls-3,.cls-4{stroke:#92b9bd;}</style></defs><rect class="cls-1" x="0.5" y="83.48" width="145" height="115" rx="15"/><path class="cls-2" d="M463.16,343v7.89a44.52,44.52,0,0,1-44.52,44.52h0a44.52,44.52,0,0,1-44.52-44.52V319.45a44.52,44.52,0,0,1,44.52-44.52h0a44.52,44.52,0,0,1,44.52,44.52" transform="translate(-344.64 -259.47)"/><rect class="cls-3" x="5.5" y="77.01" width="145" height="115" rx="15"/><path class="cls-4" d="M468.16,336.48v7.89a44.52,44.52,0,0,1-44.52,44.52h0a44.52,44.52,0,0,1-44.52-44.52V313a44.51,44.51,0,0,1,44.52-44.51h0A44.51,44.51,0,0,1,468.16,313" transform="translate(-344.64 -259.47)"/></svg>